<svg width="77" height="77" viewBox="0 0 77 77" fill="none" xmlns="http://www.w3.org/2000/svg">
<circle cx="38.5" cy="38.5" r="38.5" fill="#F2F2F2"/>
<g clip-path="url(#clip0)">
<path d="M38.2252 37.7956C40.7731 37.7956 42.979 36.8818 44.7819 35.0789C46.5842 33.2763 47.4983 31.0706 47.4983 28.5225C47.4983 25.9753 46.5845 23.7693 44.7816 21.9661C42.9787 20.1638 40.7728 19.25 38.2252 19.25C35.6771 19.25 33.4715 20.1638 31.6689 21.9664C29.8662 23.7691 28.9521 25.975 28.9521 28.5225C28.9521 31.0706 29.8662 33.2765 31.6689 35.0792C33.4721 36.8815 35.678 37.7956 38.2252 37.7956ZM33.2644 23.5617C34.6476 22.1785 36.2702 21.5061 38.2252 21.5061C40.18 21.5061 41.8029 22.1785 43.1864 23.5617C44.5695 24.9452 45.2422 26.568 45.2422 28.5225C45.2422 30.4776 44.5695 32.1002 43.1864 33.4836C41.8029 34.8671 40.18 35.5394 38.2252 35.5394C36.2708 35.5394 34.6482 34.8668 33.2644 33.4836C31.8809 32.1004 31.2083 30.4776 31.2083 28.5225C31.2083 26.568 31.8809 24.9452 33.2644 23.5617Z" fill="#C2C2C2"/>
<path d="M54.451 48.8513C54.3991 48.1011 54.2939 47.2828 54.1391 46.4186C53.9828 45.548 53.7816 44.725 53.5408 43.9727C53.2917 43.1952 52.9536 42.4274 52.535 41.6916C52.1012 40.9279 51.5913 40.2629 51.0191 39.7157C50.4208 39.1432 49.6882 38.6829 48.8411 38.3472C47.9969 38.0132 47.0614 37.844 46.0606 37.844C45.6676 37.844 45.2875 38.0053 44.5535 38.4832C44.1017 38.7778 43.5733 39.1185 42.9835 39.4954C42.4791 39.8167 41.7959 40.1178 40.952 40.3904C40.1287 40.6568 39.2928 40.7919 38.4674 40.7919C37.6426 40.7919 36.8066 40.6568 35.9827 40.3904C35.1397 40.1181 34.4562 39.817 33.9527 39.4957C33.3685 39.1224 32.8398 38.7816 32.3813 38.4829C31.6478 38.005 31.2677 37.8438 30.8747 37.8438C29.8737 37.8438 28.9384 38.0132 28.0945 38.3475C27.248 38.6826 26.5152 39.1429 25.9162 39.716C25.344 40.2635 24.8341 40.9282 24.4006 41.6916C23.9826 42.4274 23.6442 43.1949 23.3951 43.973C23.1546 44.7253 22.9534 45.548 22.7971 46.4186C22.642 47.2816 22.5372 48.1003 22.4852 48.8522C22.4341 49.5874 22.4082 50.3526 22.4082 51.1257C22.4082 53.1354 23.0471 54.7624 24.3069 55.9623C25.5511 57.1463 27.1972 57.7467 29.1996 57.7467H47.7375C49.7393 57.7467 51.3854 57.1463 52.6299 55.9623C53.89 54.7633 54.5289 53.1357 54.5289 51.1254C54.5286 50.3496 54.5024 49.5845 54.451 48.8513ZM51.0743 54.3277C50.2522 55.1101 49.1607 55.4905 47.7372 55.4905H29.1996C27.7758 55.4905 26.6843 55.1101 25.8625 54.3279C25.0562 53.5604 24.6644 52.5127 24.6644 51.1257C24.6644 50.4043 24.6881 49.692 24.7357 49.0082C24.7821 48.3373 24.877 47.6003 25.0177 46.8172C25.1566 46.0438 25.3335 45.318 25.5438 44.661C25.7456 44.0309 26.0208 43.407 26.3621 42.806C26.6879 42.2333 27.0627 41.7419 27.4762 41.3459C27.8631 40.9755 28.3507 40.6724 28.9252 40.445C29.4566 40.2347 30.0537 40.1196 30.702 40.1022C30.781 40.1443 30.9217 40.2244 31.1496 40.3731C31.6134 40.6753 32.148 41.0202 32.739 41.3976C33.4052 41.8223 34.2635 42.206 35.2889 42.537C36.3372 42.876 37.4064 43.0481 38.4677 43.0481C39.5289 43.0481 40.5984 42.876 41.6461 42.5373C42.6724 42.2057 43.5304 41.8223 44.1975 41.397C44.8023 41.0105 45.3219 40.6756 45.7857 40.3731C46.0136 40.2247 46.1543 40.1443 46.2333 40.1022C46.8819 40.1196 47.479 40.2347 48.0107 40.445C48.5849 40.6724 49.0725 40.9758 49.4594 41.3459C49.873 41.7416 50.2478 42.233 50.5735 42.8063C50.9151 43.407 51.1906 44.0312 51.3921 44.6607C51.6027 45.3186 51.7799 46.0441 51.9185 46.8169C52.0589 47.6015 52.1541 48.3388 52.2005 49.0085V49.0091C52.2484 49.6902 52.2724 50.4022 52.2727 51.1257C52.2724 52.513 51.8806 53.5604 51.0743 54.3277Z" fill="#C2C2C2"/>
</g>
<defs>
<clipPath id="clip0">
<rect width="38.4999" height="38.5" fill="white" transform="translate(19.25 19.25)"/>
</clipPath>
</defs>
</svg>
