<svg width="15" height="15" viewBox="0 0 15 15" fill="none" xmlns="http://www.w3.org/2000/svg">
<g clip-path="url(#clip0)">
<g clip-path="url(#clip1)">
<path d="M14.6073 1.40126C14.3315 1.10801 13.944 0.94043 13.539 0.94043C12.7326 0.94043 12.0797 1.59328 12.0797 2.39974C12.0797 2.52891 12.0972 2.65809 12.1321 2.78377L10.5506 3.90444C9.985 3.33188 9.05984 3.3249 8.48729 3.89047C8.08231 4.29196 7.94615 4.88895 8.14166 5.42659L6.68235 6.65548C6.22151 5.99565 5.31381 5.83156 4.65049 6.2924C4.39912 6.46696 4.2106 6.71832 4.10935 7.0046L2.89792 6.51234C2.76176 5.71635 2.01116 5.1822 1.21517 5.31836C0.419185 5.45452 -0.114964 6.20512 0.0211916 7.0011C0.157347 7.79709 0.907949 8.33124 1.70394 8.19509C2.22761 8.10781 2.66052 7.74123 2.83857 7.242L4.05001 7.73425C4.18616 8.53024 4.93676 9.06439 5.73275 8.92823C6.43448 8.80953 6.94768 8.20207 6.94768 7.48987C6.94768 7.44448 6.94419 7.39561 6.9407 7.35022L8.53267 6.00612C9.12966 6.54725 10.0513 6.50536 10.5925 5.90837C10.9381 5.52783 11.0568 4.99368 10.9102 4.50492L12.4742 3.39472C13.0258 3.98473 13.9475 4.01266 14.5375 3.46455C15.1275 2.91294 15.1554 1.99127 14.6073 1.40126ZM1.45955 7.52129C1.04061 7.52129 0.698479 7.17915 0.698479 6.76021C0.698479 6.34127 1.04061 5.99914 1.45955 5.99914C1.8785 5.99914 2.22063 6.34127 2.22063 6.76021C2.22063 7.17915 1.8785 7.52129 1.45955 7.52129ZM5.48488 8.25444C5.06594 8.25444 4.7238 7.9123 4.7238 7.49336C4.7238 7.07442 5.06594 6.73228 5.48488 6.73228C5.90382 6.73228 6.24595 7.07442 6.24595 7.49336C6.24595 7.9123 5.90731 8.25444 5.48488 8.25444ZM9.51369 5.69192C9.09475 5.69192 8.75261 5.34978 8.75261 4.93084C8.75261 4.5119 9.09475 4.16976 9.51369 4.16976C9.93263 4.16976 10.2748 4.5119 10.2748 4.93084C10.2748 5.34978 9.93263 5.69192 9.51369 5.69192ZM13.539 3.16082C13.1201 3.16082 12.7779 2.81868 12.7779 2.39974C12.7779 1.9808 13.1201 1.63866 13.539 1.63866C13.958 1.63866 14.3001 1.9808 14.3001 2.39974C14.3001 2.82217 13.9614 3.16082 13.539 3.16082Z" fill="black" fill-opacity="0.8"/>
<path d="M14.5166 5.01819H12.5615C12.3695 5.01819 12.2124 5.17529 12.2124 5.36731V13.6763C12.2124 13.8683 12.3695 14.0254 12.5615 14.0254H14.5166C14.7086 14.0254 14.8657 13.8683 14.8657 13.6763V5.36731C14.8657 5.17529 14.7086 5.01819 14.5166 5.01819ZM14.1675 13.3621H12.9106V5.71642H14.1675V13.3621Z" fill="black" fill-opacity="0.8"/>
<path d="M10.5014 7.53186H8.54638C8.35437 7.53186 8.19727 7.68896 8.19727 7.88098V13.6763C8.19727 13.8683 8.35437 14.0254 8.54638 14.0254H10.5014C10.6935 14.0254 10.8506 13.8683 10.8506 13.6763V7.88098C10.8506 7.68896 10.6935 7.53186 10.5014 7.53186ZM10.1523 13.3621H8.8955V8.23009H10.1523V13.3621Z" fill="black" fill-opacity="0.8"/>
<path d="M6.45188 10.1501H4.49682C4.30481 10.1501 4.14771 10.3072 4.14771 10.4992V13.7111C4.14771 13.9031 4.30481 14.0602 4.49682 14.0602H6.45188C6.6439 14.0602 6.801 13.9031 6.801 13.7111V10.4992C6.801 10.3072 6.6439 10.1501 6.45188 10.1501ZM6.10277 13.362H4.84594V10.8483H6.10277V13.362Z" fill="black" fill-opacity="0.8"/>
<path d="M2.43711 9.41693H0.482052C0.290037 9.41693 0.132935 9.57403 0.132935 9.76605V13.7111C0.132935 13.9031 0.290037 14.0602 0.482052 14.0602H2.43711C2.62912 14.0602 2.78623 13.9031 2.78623 13.7111V9.76605C2.78623 9.57403 2.62912 9.41693 2.43711 9.41693ZM2.08799 13.362H0.831169V10.1152H2.08799V13.362Z" fill="black" fill-opacity="0.8"/>
</g>
</g>
<defs>
<clipPath id="clip0">
<rect width="15" height="15" fill="white"/>
</clipPath>
<clipPath id="clip1">
<rect width="15" height="15" fill="white"/>
</clipPath>
</defs>
</svg>
