<svg width="42" height="27" viewBox="0 0 42 27" fill="none" xmlns="http://www.w3.org/2000/svg">
<g clip-path="url(#clip0)">
<rect x="0.75" y="0.75" width="24.5" height="24.5" rx="12.25" stroke="black" stroke-opacity="0.6" stroke-width="1.5"/>
<path d="M13.1701 4.92773H11.4775V13.7409L16.8031 19.0665L17.9998 17.8698L13.1701 13.0401V4.92773Z" fill="black" fill-opacity="0.6"/>
</g>
<path d="M41.9022 12.9308C41.7719 12.8004 41.5613 12.8004 41.4309 12.9308L38 16.3617L34.5691 12.9308C34.4387 12.8004 34.2281 12.8004 34.0977 12.9308C33.9674 13.0611 33.9674 13.2717 34.0977 13.4021L37.7643 17.0687C37.8293 17.1337 37.9147 17.1663 38 17.1663C38.0853 17.1663 38.1707 17.1337 38.2357 17.0687L41.9023 13.4021C42.0326 13.2717 42.0326 13.0611 41.9022 12.9308Z" fill="black" fill-opacity="0.6"/>
<defs>
<clipPath id="clip0">
<rect width="27" height="27" fill="white"/>
</clipPath>
</defs>
</svg>
