<svg width="41" height="31" viewBox="0 0 41 31" fill="none" xmlns="http://www.w3.org/2000/svg">
<path d="M2 19.25H1.25V20V29V29.75H2H10.6224H11.3724V29V20V19.25H10.6224H2ZM18.7033 6.88115L18.2062 7.4L18.7033 7.91885L23.5809 13.01L24.1224 13.5753L24.664 13.01L29.5416 7.91885L30.0386 7.4L29.5416 6.88115L24.664 1.78998L24.1224 1.2247L23.5809 1.78998L18.7033 6.88115ZM6.31121 11.75C9.13641 11.75 11.3724 9.36888 11.3724 6.5C11.3724 3.63112 9.13641 1.25 6.31121 1.25C3.48601 1.25 1.25 3.63112 1.25 6.5C1.25 9.36888 3.48601 11.75 6.31121 11.75ZM23.5561 29.75C26.3813 29.75 28.6173 27.3689 28.6173 24.5C28.6173 21.6311 26.3813 19.25 23.5561 19.25C20.7309 19.25 18.4948 21.6311 18.4948 24.5C18.4948 27.3689 20.7309 29.75 23.5561 29.75Z" stroke="black" stroke-opacity="0.6" stroke-width="1.5"/>
<path d="M40.9022 14.9308C40.7719 14.8004 40.5613 14.8004 40.4309 14.9308L37 18.3617L33.5691 14.9308C33.4387 14.8004 33.2281 14.8004 33.0977 14.9308C32.9674 15.0611 32.9674 15.2717 33.0977 15.4021L36.7643 19.0687C36.8293 19.1337 36.9147 19.1663 37 19.1663C37.0853 19.1663 37.1707 19.1337 37.2357 19.0687L40.9023 15.4021C41.0326 15.2717 41.0326 15.0611 40.9022 14.9308Z" fill="black" fill-opacity="0.6"/>
</svg>
