<svg width="16" height="16" viewBox="0 0 16 16" fill="none" xmlns="http://www.w3.org/2000/svg">
<rect width="16" height="16" rx="8" fill="black" fill-opacity="0.6"/>
<path d="M8 2C4.69166 2 2 4.69166 2 8C2 11.3083 4.69166 14 8 14C11.3083 14 14 11.3083 14 8C14 4.69166 11.3083 2 8 2ZM8 13.25C5.1051 13.25 2.75 10.8949 2.75 8C2.75 5.1051 5.1051 2.75 8 2.75C10.8949 2.75 13.25 5.1051 13.25 8C13.25 10.8949 10.8949 13.25 8 13.25Z" fill="white"/>
<path d="M8.375 4.25H7.625V8.15526L9.98486 10.5151L10.5151 9.98485L8.375 7.84472V4.25Z" fill="white"/>
</svg>
